<?xml version="1.0" standalone="no"?>
<!DOCTYPE svg PUBLIC "-//W3C//DTD SVG 20010904//EN"
 "http://www.w3.org/TR/2001/REC-SVG-20010904/DTD/svg10.dtd">
<svg version="1.0" xmlns="http://www.w3.org/2000/svg"
 width="1263.000000pt" height="1263.000000pt" viewBox="0 0 1263.000000 1263.000000"
 preserveAspectRatio="xMidYMid meet">
<metadata>
Created by potrace 1.11, written by Peter Selinger 2001-2013
</metadata>
<g transform="translate(0.000000,1263.000000) scale(0.100000,-0.100000)"
fill="#000000" stroke="none">
<path d="M5989 12566 c-2 -2 -53 -6 -114 -10 -60 -3 -121 -8 -135 -10 -14 -3
-56 -7 -95 -11 -38 -3 -101 -11 -140 -16 -38 -6 -87 -12 -107 -14 -21 -2 -50
-6 -65 -9 -15 -3 -44 -8 -63 -11 -19 -3 -91 -16 -160 -30 -69 -13 -136 -26
-150 -29 -223 -42 -627 -162 -925 -276 -719 -275 -1345 -659 -1964 -1205 -19
-16 -107 -100 -194 -185 -323 -315 -587 -635 -849 -1031 -301 -456 -528 -921
-703 -1443 -50 -150 -129 -420 -139 -476 -2 -14 -11 -52 -19 -85 -9 -33 -18
-72 -21 -88 -3 -15 -7 -35 -10 -45 -3 -9 -7 -35 -11 -56 -3 -21 -7 -48 -10
-60 -3 -12 -7 -34 -10 -51 -24 -136 -35 -208 -40 -255 -3 -30 -10 -82 -15
-115 -5 -33 -12 -96 -15 -140 -4 -44 -8 -96 -10 -115 -22 -195 -22 -854 -1
-965 2 -11 7 -63 11 -115 3 -52 8 -97 10 -100 1 -3 6 -39 9 -79 4 -41 9 -77
11 -80 1 -4 6 -32 9 -64 4 -32 16 -97 26 -145 10 -48 21 -98 24 -112 12 -65
37 -173 40 -179 2 -3 7 -24 10 -46 4 -22 14 -67 22 -100 9 -33 18 -68 20 -79
21 -106 60 -226 87 -265 50 -74 57 -82 149 -173 181 -180 452 -321 743 -389
67 -15 134 -22 260 -24 177 -4 258 5 395 45 64 19 65 19 40 0 -22 -17 -145
-69 -145 -61 0 1 -12 -2 -28 -8 -15 -6 -38 -13 -50 -15 -54 -11 -135 -26 -172
-31 -23 -3 -51 -7 -63 -10 -12 -2 -52 -6 -90 -10 -38 -3 -78 -7 -88 -9 -10 -2
-55 -7 -99 -10 -186 -16 -305 -32 -390 -52 -60 -15 -71 -19 -131 -45 l-32 -14
32 -65 c226 -457 469 -834 789 -1225 54 -66 119 -142 145 -170 l46 -50 23 110
c12 61 25 124 28 140 3 17 13 59 21 95 9 36 18 76 20 88 65 330 242 881 329
1022 12 19 24 40 26 45 8 19 71 115 75 115 4 0 -34 -71 -56 -105 -11 -17 -68
-157 -94 -231 -47 -135 -132 -457 -152 -574 -3 -14 -11 -54 -19 -90 -7 -36
-16 -83 -20 -105 -3 -23 -7 -52 -10 -65 -3 -14 -12 -72 -20 -130 -9 -58 -18
-116 -20 -130 -2 -14 -7 -52 -10 -85 -3 -33 -8 -67 -10 -75 -2 -8 -6 -42 -10
-75 l-6 -60 138 -135 c207 -202 261 -251 488 -439 42 -35 144 -111 148 -111 2
0 -2 36 -9 80 -11 74 -22 159 -30 235 -1 17 -5 57 -9 90 -4 33 -8 76 -10 95
-24 228 -24 897 -1 1040 3 14 7 52 11 85 23 215 93 560 139 680 l16 40 -6 -40
c-7 -57 -7 -229 1 -300 55 -503 302 -1077 724 -1683 58 -84 129 -185 157 -226
29 -41 60 -100 70 -132 23 -79 28 -304 8 -439 -25 -172 -27 -165 31 -195 28
-14 75 -36 105 -49 30 -13 80 -34 110 -48 30 -14 77 -34 103 -44 l48 -19 52
28 c57 30 119 52 217 78 76 20 308 28 385 13 28 -5 63 -12 80 -15 53 -9 174
-53 243 -88 139 -70 283 -198 352 -311 53 -87 59 -92 136 -99 38 -4 86 -11
107 -16 31 -7 37 -5 37 9 0 24 -66 148 -112 211 l-41 55 42 -40 c44 -42 117
-145 147 -208 12 -24 25 -37 38 -38 12 0 28 -2 36 -3 15 -3 138 -14 240 -22
30 -2 130 -6 223 -8 126 -4 167 -2 167 7 0 28 -66 170 -109 233 -65 94 -131
146 -228 177 -66 22 -243 66 -333 83 -20 4 -368 82 -442 99 -74 17 -226 62
-335 99 -394 135 -687 318 -902 562 -62 71 -67 81 -11 24 265 -269 577 -437
935 -505 221 -42 482 -39 710 6 107 21 131 28 240 67 428 153 704 486 752 907
12 103 5 335 -11 386 -2 8 -7 34 -10 59 -8 66 10 19 39 -105 23 -97 27 -116
41 -220 38 -285 38 -1202 0 -1819 l-4 -58 106 6 c59 4 121 9 137 11 17 2 62 6
102 10 39 3 82 8 95 10 13 2 49 6 82 10 116 13 129 18 122 43 -3 10 -8 78 -11
152 -3 74 -8 155 -10 180 -2 25 -7 83 -10 130 -9 130 -26 291 -41 385 -50 316
-154 697 -263 960 -23 55 -47 113 -54 130 -64 155 -232 465 -355 655 -436 672
-972 1140 -1512 1321 -507 169 -965 32 -1152 -346 -90 -180 -117 -442 -73
-710 42 -260 182 -593 358 -853 467 -688 1073 -1014 1595 -859 70 21 59 8 -31
-37 -191 -94 -452 -114 -735 -56 -613 125 -1172 535 -1547 1135 -320 512 -458
1088 -359 1505 9 36 17 72 19 81 7 34 67 176 97 229 65 118 162 232 281 331
61 51 219 149 240 149 7 0 17 4 22 9 6 5 39 18 75 29 59 19 104 29 210 48 42
7 263 8 305 0 17 -3 59 -10 95 -15 243 -39 565 -174 852 -358 71 -45 134 -87
140 -93 7 -5 65 -49 128 -96 139 -104 193 -149 385 -320 174 -154 185 -165
400 -379 559 -557 941 -1086 1170 -1620 44 -103 148 -401 159 -455 2 -14 13
-63 24 -110 20 -84 45 -238 57 -355 3 -33 8 -74 11 -92 2 -18 6 -63 9 -100 4
-37 8 -79 10 -93 2 -14 6 -50 10 -80 3 -30 13 -98 22 -150 30 -179 26 -165 53
-162 28 4 272 68 310 81 14 5 50 17 81 26 l57 17 -43 92 c-40 83 -103 267
-153 441 -117 410 -229 747 -306 918 -13 29 -43 95 -66 147 -83 186 -227 436
-342 595 -61 83 -233 311 -251 332 -14 15 -55 64 -93 108 -210 246 -545 583
-761 765 -35 29 -63 55 -63 57 0 6 230 -166 250 -187 3 -3 48 -39 100 -81 53
-42 102 -83 110 -90 8 -8 31 -27 50 -43 19 -16 71 -61 114 -100 348 -311 634
-609 981 -1021 294 -349 530 -528 805 -613 70 -22 231 -56 320 -68 30 -4 57
-8 60 -9 3 -1 41 -5 85 -10 44 -5 83 -9 88 -11 4 -1 23 -2 42 -3 48 -1 44 -17
-5 -19 -61 -4 -182 -38 -240 -67 -191 -97 -285 -318 -236 -553 18 -87 74 -194
130 -253 78 -80 64 -81 246 7 l160 78 -46 45 c-70 66 -99 137 -98 236 1 98 24
155 89 221 169 168 446 112 539 -110 9 -21 16 -49 16 -62 0 -13 4 -24 9 -24 9
0 312 207 321 219 3 4 21 18 40 31 40 28 36 25 155 121 324 263 689 624 925
918 19 24 40 48 46 55 63 68 366 501 454 650 21 35 22 38 4 32 -150 -45 -515
-138 -604 -152 -14 -2 -36 -7 -50 -10 -14 -3 -36 -8 -50 -11 -14 -2 -45 -9
-70 -14 -25 -6 -54 -12 -65 -15 -44 -9 -121 -24 -145 -28 -14 -3 -34 -7 -45
-10 -11 -2 -52 -11 -91 -20 -409 -88 -552 -189 -724 -511 -67 -124 -200 -338
-207 -331 -2 1 4 25 12 52 23 80 27 104 31 209 5 155 -26 248 -113 340 -86 91
-178 128 -467 186 -110 23 -210 43 -221 45 -11 2 -31 6 -45 9 -14 3 -34 7 -45
9 -11 3 -49 11 -85 19 -272 61 -704 190 -929 278 -42 17 -80 32 -86 33 -5 2
-22 8 -37 14 -175 72 -260 108 -353 152 -60 28 -141 65 -178 83 l-68 31 38 16
c85 35 103 49 104 83 5 174 -56 442 -177 772 -25 66 -49 129 -54 140 -5 11
-23 54 -41 95 -170 400 -394 801 -622 1115 -47 65 -158 205 -182 231 -5 6 -37
41 -69 78 -93 106 -263 272 -346 338 -41 33 -82 65 -91 73 -9 7 -45 28 -80 48
-221 121 -396 92 -585 -99 -115 -116 -156 -205 -154 -337 0 -86 16 -139 75
-262 58 -120 130 -219 301 -420 231 -272 411 -497 578 -724 105 -143 358 -507
381 -550 9 -14 23 -37 33 -51 13 -19 3 -15 -46 20 -54 37 -79 66 -167 197 -93
136 -180 260 -202 288 -5 6 -46 62 -93 125 -101 136 -141 175 -385 379 -87 72
-236 177 -356 249 -117 71 -361 172 -415 172 -11 0 -50 25 -89 56 -281 224
-461 298 -725 297 -52 0 -115 -3 -140 -6 -25 -4 -62 -9 -83 -12 -87 -12 -230
-72 -328 -138 -104 -70 -233 -206 -296 -314 -28 -49 -38 -56 -21 -15 92 211
239 372 428 467 151 76 304 106 520 100 85 -2 169 -6 185 -9 17 -3 46 -9 65
-12 73 -13 87 -16 162 -34 212 -53 490 -209 744 -419 150 -125 220 -188 372
-336 131 -128 149 -144 116 -105 -12 14 -30 36 -42 50 -35 43 -136 164 -147
176 -5 6 -26 31 -46 55 -20 24 -78 94 -128 154 -86 103 -214 286 -257 365 -10
19 -24 42 -30 50 -22 29 -87 195 -110 279 -27 95 -38 191 -37 301 2 116 9 173
48 370 3 14 27 113 54 220 98 382 98 453 2 708 -105 279 -204 637 -170 616 5
-3 9 -10 9 -16 0 -36 268 -606 326 -693 62 -94 166 -162 274 -178 19 -3 67
-10 105 -16 68 -10 159 -33 200 -50 11 -5 40 -17 65 -27 183 -75 349 -246 494
-506 42 -77 60 -90 126 -90 74 0 151 42 198 109 28 40 28 46 -8 189 -44 170
-48 181 -81 205 -119 85 -310 36 -369 -93 l-17 -38 -10 68 c-15 101 -8 191 23
274 58 160 72 205 79 253 18 134 -4 278 -63 406 -64 139 -240 347 -372 440
-193 136 -339 166 -585 123 -215 -39 -430 -175 -587 -372 -65 -81 -139 -204
-167 -278 -13 -33 -27 -68 -31 -79 -29 -69 -72 -252 -86 -360 -3 -22 -7 -51
-10 -65 -10 -46 -12 -394 -3 -480 8 -74 26 -180 44 -259 25 -109 109 -328 177
-466 46 -91 42 -89 -34 15 -182 251 -289 517 -323 800 -3 25 -7 63 -10 85 -6
49 -7 278 -1 320 2 17 7 55 10 86 4 31 9 67 11 80 3 13 10 50 15 81 6 31 24
105 40 163 127 450 426 895 752 1113 55 38 198 112 215 112 6 0 14 4 17 9 6 9
-121 7 -179 -3 -16 -2 -55 -7 -85 -11 -80 -10 -240 -51 -355 -91 -86 -31 -338
-148 -400 -187 -287 -179 -446 -314 -725 -617 -58 -62 -110 -118 -115 -124 -6
-6 -60 -65 -120 -131 -60 -66 -138 -149 -173 -185 l-63 -65 54 110 c30 61 88
180 129 265 202 416 316 644 369 733 32 53 56 97 53 97 -19 0 -364 -239 -404
-280 -3 -3 -30 -25 -60 -50 -91 -75 -107 -90 -256 -235 -267 -262 -509 -560
-806 -990 -84 -122 -86 -124 -186 -212 -94 -84 -207 -217 -398 -464 -155 -202
-346 -457 -352 -470 -2 -4 21 15 50 43 176 167 345 277 526 342 40 14 85 28
100 31 15 3 38 8 52 11 14 3 72 7 130 9 221 9 424 -70 580 -225 122 -121 194
-261 231 -454 20 -101 27 -293 14 -381 -15 -100 -48 -247 -72 -315 -26 -78
-135 -310 -156 -332 -7 -7 -34 -45 -60 -85 -92 -138 -252 -280 -394 -352 -139
-71 -209 -86 -383 -86 -159 1 -251 24 -415 104 -273 134 -468 337 -545 570
-16 47 -33 110 -38 139 -9 52 -8 256 1 297 21 87 41 154 67 216 16 41 30 76
30 78 0 2 -47 -59 -104 -135 -99 -133 -176 -224 -188 -224 -3 0 -9 28 -13 63
-4 34 -8 70 -10 80 -2 9 -6 51 -10 92 -3 41 -8 85 -10 97 -12 74 -19 268 -19
513 0 308 7 466 29 645 3 19 7 62 10 95 3 33 8 71 10 85 20 121 65 379 69 395
6 28 46 206 51 230 12 55 80 294 112 390 66 204 156 436 255 655 35 78 174
352 213 420 21 36 49 85 63 110 29 51 71 118 151 240 31 47 60 92 66 101 17
29 110 160 120 173 6 6 48 61 94 121 76 99 182 228 280 340 91 104 442 444
576 559 580 497 1234 872 1971 1131 166 58 468 147 574 169 14 3 79 17 145 31
163 36 149 33 250 50 50 8 101 17 115 19 14 3 45 7 70 10 25 4 56 8 70 10 14
3 52 7 85 10 33 4 78 8 100 11 128 17 382 29 605 29 173 0 472 -11 520 -18 21
-4 56 -7 205 -21 35 -3 129 -15 160 -20 17 -3 44 -7 60 -10 17 -2 48 -7 70
-10 22 -3 63 -10 90 -15 28 -5 65 -12 82 -15 18 -3 61 -12 95 -20 35 -8 74
-16 88 -19 41 -7 83 -16 120 -27 19 -5 87 -23 150 -40 251 -66 597 -185 785
-269 22 -10 74 -33 115 -51 204 -87 520 -255 740 -392 175 -110 424 -279 450
-307 3 -3 49 -38 103 -79 54 -41 104 -79 110 -86 7 -6 44 -38 82 -70 107 -90
291 -259 380 -351 182 -185 264 -275 388 -427 518 -630 888 -1314 1141 -2112
44 -139 126 -470 152 -615 3 -14 11 -56 19 -95 7 -38 16 -88 19 -110 3 -22 12
-87 20 -145 16 -117 23 -171 31 -275 3 -38 8 -92 11 -120 13 -143 20 -605 10
-725 -3 -30 -8 -104 -11 -165 -3 -60 -8 -121 -10 -135 -2 -14 -6 -52 -10 -85
-10 -103 -16 -148 -25 -205 -11 -65 -20 -126 -25 -160 -11 -76 -57 -300 -80
-390 -8 -30 -16 -66 -19 -80 -3 -14 -21 -81 -40 -150 -98 -354 -266 -791 -412
-1074 -14 -26 -23 -50 -21 -53 5 -4 86 157 147 292 125 275 261 647 326 890
52 195 83 328 119 506 13 62 51 301 60 379 4 30 8 66 10 80 2 14 7 57 10 95 3
39 8 86 10 105 23 178 23 858 0 1001 -2 13 -7 65 -11 114 -4 50 -8 97 -9 105
-3 28 -17 125 -20 150 -2 14 -7 52 -11 85 -3 33 -8 62 -9 65 -2 3 -11 50 -20
105 -71 426 -253 1010 -446 1435 -53 117 -212 430 -245 482 -13 21 -24 40 -24
42 0 11 -128 219 -220 356 -502 756 -1119 1355 -1920 1866 -76 49 -257 154
-265 154 -3 0 -24 11 -46 25 -52 33 -329 172 -461 231 -323 144 -740 286
-1076 365 -70 16 -154 36 -187 44 -57 14 -119 25 -250 45 -33 6 -71 12 -85 14
-87 16 -301 41 -425 51 -44 3 -96 9 -115 11 -40 6 -765 15 -771 10z m-3354
-4971 c54 -14 115 -33 135 -42 19 -8 44 -18 55 -22 54 -20 260 -126 275 -141
3 -3 30 -24 60 -47 112 -85 185 -170 236 -277 55 -115 73 -202 69 -341 -4
-138 -6 -157 -44 -285 -45 -150 -113 -301 -214 -470 -58 -99 -73 -117 -107
-135 -23 -12 -19 -2 36 109 87 173 132 307 152 451 9 65 9 237 -1 296 -25 158
-121 339 -242 454 -172 166 -384 271 -630 313 -22 4 -94 7 -160 7 -136 -1
-221 -21 -335 -81 l-65 -33 62 59 c132 125 250 184 428 213 56 9 200 -5 290
-28z m2828 -1446 c81 -48 131 -91 287 -248 223 -224 407 -465 587 -766 221
-372 460 -916 598 -1360 20 -66 45 -147 56 -179 10 -33 17 -61 15 -63 -5 -5
-168 86 -366 204 l-175 104 -97 197 c-169 344 -356 641 -708 1122 -243 334
-305 423 -379 552 -149 256 -147 390 9 465 38 19 113 6 173 -28z m-639 -936
c23 -13 49 -26 59 -29 9 -4 17 -10 17 -15 0 -5 5 -9 11 -9 26 0 270 -180 435
-322 133 -114 453 -431 590 -583 49 -55 93 -103 99 -107 5 -4 7 -9 5 -11 -11
-11 -484 360 -646 508 -7 5 -47 42 -89 80 -117 105 -126 113 -319 299 -98 94
-192 184 -210 199 -34 31 -17 28 48 -10z m189 -1418 c231 -67 490 -236 728
-476 276 -278 405 -521 414 -779 7 -189 -47 -325 -184 -460 -54 -53 -100 -88
-158 -118 -46 -24 -83 -40 -83 -37 0 3 -8 1 -18 -4 -55 -30 -205 -35 -319 -12
-193 40 -361 140 -554 331 -327 324 -547 716 -564 1005 -6 113 10 200 55 290
122 247 385 347 683 260z"/>
<path d="M5230 5958 c0 -13 49 -125 78 -180 28 -52 59 -89 122 -146 248 -223
542 -537 746 -797 102 -130 254 -342 254 -354 0 -6 3 -11 8 -11 4 0 21 -23 37
-51 17 -28 35 -56 40 -62 16 -18 236 -371 290 -465 27 -45 50 -81 51 -79 4 4
-20 83 -36 122 -4 11 -20 54 -35 95 -99 282 -133 354 -254 532 -127 188 -337
465 -391 518 -3 3 -18 21 -34 40 -73 89 -175 199 -331 355 -173 173 -213 210
-345 325 -41 36 -77 67 -80 70 -34 35 -120 98 -120 88z"/>
<path d="M4730 3586 c-127 -40 -215 -159 -219 -298 -5 -195 164 -490 397 -691
161 -138 358 -181 503 -110 198 98 269 301 179 516 -94 225 -374 486 -610 568
-74 25 -195 33 -250 15z"/>
<path d="M3157 11099 c-166 -33 -313 -110 -430 -224 -150 -145 -231 -320 -243
-525 -13 -206 54 -363 195 -462 71 -49 159 -78 261 -85 208 -14 377 80 463
257 43 89 48 108 52 224 5 150 -39 268 -137 368 -87 90 -232 147 -358 142 -69
-3 -48 12 43 30 181 37 409 -31 602 -180 185 -143 288 -315 360 -604 57 -225
48 -370 -31 -520 -19 -37 -43 -76 -52 -86 -118 -133 -227 -276 -343 -454 -60
-91 -136 -226 -215 -385 l-76 -150 78 79 c197 198 423 375 619 487 204 116
505 234 670 263 17 3 53 10 80 15 155 29 491 33 645 7 14 -3 45 -7 70 -10 67
-9 94 -14 170 -31 3 -1 21 -5 40 -9 256 -58 510 -190 674 -353 72 -70 75 -72
36 -23 -25 30 -47 57 -50 60 -3 3 -30 34 -60 70 -30 36 -73 85 -96 110 -22 25
-67 75 -100 111 -82 92 -631 638 -794 791 -144 135 -148 138 -290 268 -51 47
-98 90 -104 95 -9 9 -107 92 -243 205 -59 50 -289 209 -378 262 -313 185 -578
268 -873 272 -63 1 -135 -5 -185 -15z m1345 -954 c24 -26 99 -133 185 -266 25
-39 86 -86 143 -112 150 -67 254 -119 278 -138 19 -16 21 -20 7 -15 -11 5 -24
9 -30 10 -5 2 -17 6 -25 9 -8 3 -37 10 -65 16 -250 53 -485 15 -637 -102 -27
-20 -48 -34 -48 -30 0 13 52 73 112 130 34 32 76 72 94 89 18 17 36 42 39 56
24 95 -8 225 -88 358 -39 66 -31 65 35 -5z"/>
<path d="M5408 9125 c-2 -1 -30 -5 -63 -9 -160 -16 -394 -109 -540 -214 -186
-133 -345 -317 -479 -552 l-37 -65 37 45 c72 87 211 217 282 263 132 86 243
129 391 153 182 29 331 10 471 -61 275 -139 517 -456 730 -955 80 -186 187
-512 235 -710 67 -278 92 -340 156 -379 36 -22 78 -15 138 24 118 74 177 195
199 404 11 112 4 329 -13 391 -2 8 -6 31 -9 50 -71 482 -418 1154 -730 1415
-123 103 -253 156 -461 190 -41 7 -301 15 -307 10z"/>
<path d="M5389 7259 c-196 -44 -426 -242 -531 -459 -78 -162 -107 -294 -102
-470 4 -127 16 -199 28 -165 53 155 190 309 348 393 96 50 141 62 236 58 90
-3 137 -13 257 -52 248 -81 393 -117 510 -129 104 -11 215 -9 215 3 0 4 -24
19 -53 35 -102 54 -179 144 -301 351 -150 253 -255 365 -394 419 -49 20 -159
28 -213 16z"/>
<path d="M6966 6908 c6 -29 -6 -115 -35 -248 -58 -263 -62 -468 -12 -595 21
-52 17 -138 -8 -179 -58 -94 -192 -91 -227 5 -37 103 -2 258 127 549 47 109
90 227 125 350 31 109 30 121 -3 40 -52 -130 -181 -287 -296 -361 -48 -31
-120 -63 -172 -75 -5 -2 -21 -6 -35 -10 -14 -3 -86 -8 -160 -9 -121 -3 -185 3
-302 29 -16 3 -38 8 -50 11 -36 8 -248 74 -261 81 -22 13 28 -31 66 -57 157
-108 441 -407 632 -664 410 -551 800 -1374 904 -1905 19 -100 21 -114 27 -190
4 -41 8 -77 10 -79 6 -6 86 70 126 119 69 87 131 219 159 340 24 104 30 156
30 264 -1 139 -22 315 -51 426 -5 19 -16 64 -25 100 -54 230 -183 582 -345
940 -21 47 -49 110 -63 140 -40 90 -86 232 -107 332 -25 118 -34 235 -34 470
-1 102 -4 184 -8 182 -3 -2 -9 2 -12 8 -3 7 -3 1 0 -14z"/>
<path d="M1743 6368 c-139 -21 -283 -104 -418 -242 -194 -197 -262 -410 -195
-610 76 -228 344 -404 583 -383 385 34 679 617 500 994 -80 171 -276 271 -470
241z"/>
<path d="M11875 3380 c-19 -38 -33 -70 -30 -70 2 0 21 32 40 70 19 39 33 70
30 70 -2 0 -21 -31 -40 -70z"/>
<path d="M11810 3260 c-6 -11 -8 -20 -6 -20 3 0 10 9 16 20 6 11 8 20 6 20 -3
0 -10 -9 -16 -20z"/>
</g>
</svg>
