<?xml version="1.0" encoding="UTF-8"?>
<svg width="20px" height="20px" viewBox="0 0 20 20" version="1.1" xmlns="http://www.w3.org/2000/svg" xmlns:xlink="http://www.w3.org/1999/xlink">
    <!-- Generator: Sketch 57.1 (83088) - https://sketch.com -->
    <title>Fill 1</title>
    <desc>Created with Sketch.</desc>
    <g id="Page-1" stroke="none" stroke-width="1" fill="none" fill-rule="evenodd">
        <g id="HOME---DESKTOP---MAX" transform="translate(-522.000000, -1919.000000)" fill="#A9A9A9">
            <g id="FOOTER" transform="translate(364.000000, 1894.000000)">
                <path d="M178,29 C178,26.79 176.21,25 174,25 L162,25 C159.79,25 158,26.79 158,29 L158,41 C158,43.21 159.79,45 162,45 L174,45 C176.21,45 178,43.21 178,41 L178,29 Z M173,43 L163,43 C161.34,43 160,41.66 160,40 L160,32 L164.02,32 C163.39,32.84 163,33.87 163,35 C163,37.76 165.24,40 168,40 C170.76,40 173,37.76 173,35 C173,33.87 172.61,32.84 171.98,32 L176,32 L176,40 C176,41.66 174.66,43 173,43 L173,43 Z M168,32 C169.66,32 171,33.34 171,35 C171,36.66 169.66,38 168,38 C166.34,38 165,36.66 165,35 C165,33.34 166.34,32 168,32 L168,32 Z M168,30 C166.88,30 165.86,30.38 165.03,31 L160,31 L160,30 C160,28.34 161.34,27 163,27 L173,27 C174.66,27 176,28.34 176,30 L176,31 L170.97,31 C170.14,30.38 169.12,30 168,30 L168,30 Z M172,30 L174,30 L174,28 L172,28 L172,30 Z" id="Fill-1"></path>
            </g>
        </g>
    </g>
</svg>